{
    "asset" : {
        "generator" : "Khronos glTF Blender I/O v1.7.33",
        "version" : "2.0"
    },
    "scene" : 0,
    "scenes" : [
        {
            "name" : "Scene",
            "nodes" : [
                10
            ]
        }
    ],
    "nodes" : [
        {
            "mesh" : 0,
            "name" : "_Screen",
            "rotation" : [
                -1,
                0,
                0,
                8.903511172775325e-08
            ],
            "translation" : [
                -0.017490863800048828,
                1.081246018409729,
                1.0868302583694458
            ]
        },
        {
            "mesh" : 1,
            "name" : "_ScreenFrame"
        },
        {
            "mesh" : 2,
            "name" : "Keyboard"
        },
        {
            "mesh" : 3,
            "name" : "Keycaps",
            "rotation" : [
                0.7071068286895752,
                0,
                0,
                0.7071067094802856
            ],
            "scale" : [
                0.08394517749547958,
                0.08394517004489899,
                0.08394517004489899
            ]
        },
        {
            "mesh" : 4,
            "name" : "Object_2"
        },
        {
            "mesh" : 5,
            "name" : "Object_5"
        },
        {
            "mesh" : 6,
            "name" : "Object_6"
        },
        {
            "mesh" : 7,
            "name" : "Object_7"
        },
        {
            "mesh" : 8,
            "name" : "Object_8"
        },
        {
            "mesh" : 9,
            "name" : "Object_9"
        },
        {
            "children" : [
                0,
                1,
                2,
                3,
                4,
                5,
                6,
                7,
                8,
                9
            ],
            "name" : "MacBook_Air_M2.obj.cleaner.materialmerger.gles",
            "rotation" : [
                -0.7071068286895752,
                0,
                0,
                0.7071068286895752
            ]
        }
    ],
    "materials" : [
        {
            "doubleSided" : true,
            "name" : "Aluminum_-_Anodized_Glossy_Grey_keyboard.jpg",
            "pbrMetallicRoughness" : {
                "baseColorTexture" : {
                    "index" : 0
                },
                "metallicFactor" : 0.699999988079071,
                "roughnessFactor" : 0.30000001192092896
            }
        },
        {
            "doubleSided" : true,
            "name" : "Glass_-_Heavy_Color.001",
            "pbrMetallicRoughness" : {
                "baseColorTexture" : {
                    "index" : 1
                },
                "metallicFactor" : 0,
                "roughnessFactor" : 0
            }
        },
        {
            "doubleSided" : true,
            "name" : "Aluminum_-_Anodized_Glossy_Grey",
            "pbrMetallicRoughness" : {
                "baseColorFactor" : [
                    0.022173885256052017,
                    0.03071344457566738,
                    0.04666508734226227,
                    1
                ],
                "metallicFactor" : 0.699999988079071,
                "roughnessFactor" : 0.30000001192092896
            }
        },
        {
            "doubleSided" : true,
            "name" : "Plastic_-_Translucent_Matte_Gray",
            "pbrMetallicRoughness" : {
                "baseColorFactor" : [
                    0,
                    0,
                    0,
                    1
                ],
                "metallicFactor" : 0,
                "roughnessFactor" : 0.8434915542602539
            }
        },
        {
            "doubleSided" : true,
            "name" : "Acrylic_Clear",
            "pbrMetallicRoughness" : {
                "baseColorFactor" : [
                    0,
                    0,
                    0,
                    1
                ],
                "metallicFactor" : 0,
                "roughnessFactor" : 0.8434915542602539
            }
        },
        {
            "doubleSided" : true,
            "name" : "Bronze_-_Polished",
            "pbrMetallicRoughness" : {
                "baseColorFactor" : [
                    0.6399999856948853,
                    0.6399999856948853,
                    0.6399999856948853,
                    1
                ],
                "metallicFactor" : 0,
                "roughnessFactor" : 0.8434915542602539
            }
        },
        {
            "doubleSided" : true,
            "name" : "Rubber_-_Soft",
            "pbrMetallicRoughness" : {
                "baseColorFactor" : [
                    0,
                    0,
                    0,
                    1
                ],
                "metallicFactor" : 0,
                "roughnessFactor" : 0.8434915542602539
            }
        },
        {
            "doubleSided" : true,
            "name" : "Steel_-_Satin",
            "pbrMetallicRoughness" : {
                "baseColorFactor" : [
                    0.09084171056747437,
                    0.09084171056747437,
                    0.09084171056747437,
                    1
                ],
                "metallicFactor" : 0.699999988079071,
                "roughnessFactor" : 0.8434915542602539
            }
        }
    ],
    "meshes" : [
        {
            "name" : "Plane",
            "primitives" : [
                {
                    "attributes" : {
                        "POSITION" : 0,
                        "NORMAL" : 1,
                        "TEXCOORD_0" : 2
                    },
                    "indices" : 3,
                    "material" : 0
                }
            ]
        },
        {
            "name" : "Object_2.001",
            "primitives" : [
                {
                    "attributes" : {
                        "POSITION" : 4,
                        "NORMAL" : 5,
                        "TEXCOORD_0" : 6
                    },
                    "indices" : 7,
                    "material" : 1
                }
            ]
        },
        {
            "name" : "Object_1",
            "primitives" : [
                {
                    "attributes" : {
                        "POSITION" : 8,
                        "NORMAL" : 9,
                        "TEXCOORD_0" : 10
                    },
                    "indices" : 11,
                    "material" : 0
                }
            ]
        },
        {
            "name" : "Cube.001",
            "primitives" : [
                {
                    "attributes" : {
                        "POSITION" : 12,
                        "NORMAL" : 13,
                        "TEXCOORD_0" : 14
                    },
                    "indices" : 15,
                    "material" : 0
                }
            ]
        },
        {
            "name" : "Object_0",
            "primitives" : [
                {
                    "attributes" : {
                        "POSITION" : 16,
                        "NORMAL" : 17,
                        "TEXCOORD_0" : 18
                    },
                    "indices" : 19,
                    "material" : 2
                }
            ]
        },
        {
            "name" : "Object_3",
            "primitives" : [
                {
                    "attributes" : {
                        "POSITION" : 20,
                        "NORMAL" : 21,
                        "TEXCOORD_0" : 22
                    },
                    "indices" : 23,
                    "material" : 3
                }
            ]
        },
        {
            "name" : "Object_4",
            "primitives" : [
                {
                    "attributes" : {
                        "POSITION" : 24,
                        "NORMAL" : 25,
                        "TEXCOORD_0" : 26
                    },
                    "indices" : 27,
                    "material" : 4
                }
            ]
        },
        {
            "name" : "Object_5",
            "primitives" : [
                {
                    "attributes" : {
                        "POSITION" : 28,
                        "NORMAL" : 29,
                        "TEXCOORD_0" : 30
                    },
                    "indices" : 31,
                    "material" : 5
                }
            ]
        },
        {
            "name" : "Object_6",
            "primitives" : [
                {
                    "attributes" : {
                        "POSITION" : 32,
                        "NORMAL" : 33,
                        "TEXCOORD_0" : 34
                    },
                    "indices" : 35,
                    "material" : 6
                }
            ]
        },
        {
            "name" : "Object_7",
            "primitives" : [
                {
                    "attributes" : {
                        "POSITION" : 36,
                        "NORMAL" : 37,
                        "TEXCOORD_0" : 38
                    },
                    "indices" : 39,
                    "material" : 7
                }
            ]
        }
    ],
    "textures" : [
        {
            "sampler" : 0,
            "source" : 0
        },
        {
            "sampler" : 0,
            "source" : 1
        }
    ],
    "images" : [
        {
            "bufferView" : 4,
            "mimeType" : "image/jpeg",
            "name" : "Aluminum_-_Anodized_Glossy_Grey_keyboard.jpg_baseColor"
        },
        {
            "bufferView" : 9,
            "mimeType" : "image/jpeg",
            "name" : "Glass_-_Heavy_Color_baseColor"
        }
    ],
    "accessors" : [
        {
            "bufferView" : 0,
            "componentType" : 5126,
            "count" : 101,
            "max" : [
                1.4861571788787842,
                0.0002086162567138672,
                0.9749953746795654
            ],
            "min" : [
                -1.4471731185913086,
                0.0002086162567138672,
                -0.8614475727081299
            ],
            "type" : "VEC3"
        },
        {
            "bufferView" : 1,
            "componentType" : 5126,
            "count" : 101,
            "type" : "VEC3"
        },
        {
            "bufferView" : 2,
            "componentType" : 5126,
            "count" : 101,
            "type" : "VEC2"
        },
        {
            "bufferView" : 3,
            "componentType" : 5123,
            "count" : 198,
            "type" : "SCALAR"
        },
        {
            "bufferView" : 5,
            "componentType" : 5126,
            "count" : 420,
            "max" : [
                1.5116909742355347,
                1.086717963218689,
                2.0544979572296143
            ],
            "min" : [
                -1.5116909742355347,
                1.0817179679870605,
                0.010259999893605709
            ],
            "type" : "VEC3"
        },
        {
            "bufferView" : 6,
            "componentType" : 5126,
            "count" : 420,
            "type" : "VEC3"
        },
        {
            "bufferView" : 7,
            "componentType" : 5126,
            "count" : 420,
            "type" : "VEC2"
        },
        {
            "bufferView" : 8,
            "componentType" : 5123,
            "count" : 654,
            "type" : "SCALAR"
        },
        {
            "bufferView" : 10,
            "componentType" : 5126,
            "count" : 5048,
            "max" : [
                1.520190954208374,
                1.0744179487228394,
                -0.03400000184774399
            ],
            "min" : [
                -1.520190954208374,
                -1.0744199752807617,
                -0.127360001206398
            ],
            "type" : "VEC3"
        },
        {
            "bufferView" : 11,
            "componentType" : 5126,
            "count" : 5048,
            "type" : "VEC3"
        },
        {
            "bufferView" : 12,
            "componentType" : 5126,
            "count" : 5048,
            "type" : "VEC2"
        },
        {
            "bufferView" : 13,
            "componentType" : 5123,
            "count" : 11016,
            "type" : "SCALAR"
        },
        {
            "bufferView" : 14,
            "componentType" : 5126,
            "count" : 6336,
            "max" : [
                16.400074005126953,
                -0.40502455830574036,
                2.0712337493896484
            ],
            "min" : [
                -16.377578735351562,
                -0.5391010642051697,
                -11.104246139526367
            ],
            "type" : "VEC3"
        },
        {
            "bufferView" : 15,
            "componentType" : 5126,
            "count" : 6336,
            "type" : "VEC3"
        },
        {
            "bufferView" : 16,
            "componentType" : 5126,
            "count" : 6336,
            "type" : "VEC2"
        },
        {
            "bufferView" : 17,
            "componentType" : 5123,
            "count" : 18480,
            "type" : "SCALAR"
        },
        {
            "bufferView" : 18,
            "componentType" : 5126,
            "count" : 1201,
            "max" : [
                1.520190954208374,
                1.1157180070877075,
                2.0629990100860596
            ],
            "min" : [
                -1.520190954208374,
                1.086717963218689,
                -0.08584000170230865
            ],
            "type" : "VEC3"
        },
        {
            "bufferView" : 19,
            "componentType" : 5126,
            "count" : 1201,
            "type" : "VEC3"
        },
        {
            "bufferView" : 20,
            "componentType" : 5126,
            "count" : 1201,
            "type" : "VEC2"
        },
        {
            "bufferView" : 21,
            "componentType" : 5123,
            "count" : 2994,
            "type" : "SCALAR"
        },
        {
            "bufferView" : 22,
            "componentType" : 5126,
            "count" : 221,
            "max" : [
                1.5078059434890747,
                1.086717963218689,
                0.010259999893605709
            ],
            "min" : [
                -1.5078070163726807,
                1.0432629585266113,
                -0.07733999937772751
            ],
            "type" : "VEC3"
        },
        {
            "bufferView" : 23,
            "componentType" : 5126,
            "count" : 221,
            "type" : "VEC3"
        },
        {
            "bufferView" : 24,
            "componentType" : 5126,
            "count" : 221,
            "type" : "VEC2"
        },
        {
            "bufferView" : 25,
            "componentType" : 5123,
            "count" : 360,
            "type" : "SCALAR"
        },
        {
            "bufferView" : 26,
            "componentType" : 5126,
            "count" : 963,
            "max" : [
                0.18165799975395203,
                1.1157180070877075,
                1.2529339790344238
            ],
            "min" : [
                -0.1869100034236908,
                1.1057180166244507,
                0.8002110123634338
            ],
            "type" : "VEC3"
        },
        {
            "bufferView" : 27,
            "componentType" : 5126,
            "count" : 963,
            "type" : "VEC3"
        },
        {
            "bufferView" : 28,
            "componentType" : 5126,
            "count" : 963,
            "type" : "VEC2"
        },
        {
            "bufferView" : 29,
            "componentType" : 5123,
            "count" : 1584,
            "type" : "SCALAR"
        },
        {
            "bufferView" : 30,
            "componentType" : 5126,
            "count" : 766,
            "max" : [
                -1.485190987586975,
                0.8815100193023682,
                -0.057402998208999634
            ],
            "min" : [
                -1.5151909589767456,
                0.8013989925384521,
                -0.0627949982881546
            ],
            "type" : "VEC3"
        },
        {
            "bufferView" : 31,
            "componentType" : 5126,
            "count" : 766,
            "type" : "VEC3"
        },
        {
            "bufferView" : 32,
            "componentType" : 5126,
            "count" : 766,
            "type" : "VEC2"
        },
        {
            "bufferView" : 33,
            "componentType" : 5123,
            "count" : 1380,
            "type" : "SCALAR"
        },
        {
            "bufferView" : 34,
            "componentType" : 5126,
            "count" : 1164,
            "max" : [
                1.3589659929275513,
                0.8344929814338684,
                -0.127360001206398
            ],
            "min" : [
                -1.3589659929275513,
                -0.8344929814338684,
                -0.13575999438762665
            ],
            "type" : "VEC3"
        },
        {
            "bufferView" : 35,
            "componentType" : 5126,
            "count" : 1164,
            "type" : "VEC3"
        },
        {
            "bufferView" : 36,
            "componentType" : 5126,
            "count" : 1164,
            "type" : "VEC2"
        },
        {
            "bufferView" : 37,
            "componentType" : 5123,
            "count" : 1944,
            "type" : "SCALAR"
        },
        {
            "bufferView" : 38,
            "componentType" : 5126,
            "count" : 48,
            "max" : [
                -1.466191053390503,
                0.6886289715766907,
                -0.05723600089550018
            ],
            "min" : [
                -1.5111910104751587,
                0.48231399059295654,
                -0.06296200305223465
            ],
            "type" : "VEC3"
        },
        {
            "bufferView" : 39,
            "componentType" : 5126,
            "count" : 48,
            "type" : "VEC3"
        },
        {
            "bufferView" : 40,
            "componentType" : 5126,
            "count" : 48,
            "type" : "VEC2"
        },
        {
            "bufferView" : 41,
            "componentType" : 5123,
            "count" : 72,
            "type" : "SCALAR"
        }
    ],
    "bufferViews" : [
        {
            "buffer" : 0,
            "byteLength" : 1212,
            "byteOffset" : 0
        },
        {
            "buffer" : 0,
            "byteLength" : 1212,
            "byteOffset" : 1212
        },
        {
            "buffer" : 0,
            "byteLength" : 808,
            "byteOffset" : 2424
        },
        {
            "buffer" : 0,
            "byteLength" : 396,
            "byteOffset" : 3232
        },
        {
            "buffer" : 0,
            "byteLength" : 228379,
            "byteOffset" : 3628
        },
        {
            "buffer" : 0,
            "byteLength" : 5040,
            "byteOffset" : 232008
        },
        {
            "buffer" : 0,
            "byteLength" : 5040,
            "byteOffset" : 237048
        },
        {
            "buffer" : 0,
            "byteLength" : 3360,
            "byteOffset" : 242088
        },
        {
            "buffer" : 0,
            "byteLength" : 1308,
            "byteOffset" : 245448
        },
        {
            "buffer" : 0,
            "byteLength" : 979840,
            "byteOffset" : 246756
        },
        {
            "buffer" : 0,
            "byteLength" : 60576,
            "byteOffset" : 1226596
        },
        {
            "buffer" : 0,
            "byteLength" : 60576,
            "byteOffset" : 1287172
        },
        {
            "buffer" : 0,
            "byteLength" : 40384,
            "byteOffset" : 1347748
        },
        {
            "buffer" : 0,
            "byteLength" : 22032,
            "byteOffset" : 1388132
        },
        {
            "buffer" : 0,
            "byteLength" : 76032,
            "byteOffset" : 1410164
        },
        {
            "buffer" : 0,
            "byteLength" : 76032,
            "byteOffset" : 1486196
        },
        {
            "buffer" : 0,
            "byteLength" : 50688,
            "byteOffset" : 1562228
        },
        {
            "buffer" : 0,
            "byteLength" : 36960,
            "byteOffset" : 1612916
        },
        {
            "buffer" : 0,
            "byteLength" : 14412,
            "byteOffset" : 1649876
        },
        {
            "buffer" : 0,
            "byteLength" : 14412,
            "byteOffset" : 1664288
        },
        {
            "buffer" : 0,
            "byteLength" : 9608,
            "byteOffset" : 1678700
        },
        {
            "buffer" : 0,
            "byteLength" : 5988,
            "byteOffset" : 1688308
        },
        {
            "buffer" : 0,
            "byteLength" : 2652,
            "byteOffset" : 1694296
        },
        {
            "buffer" : 0,
            "byteLength" : 2652,
            "byteOffset" : 1696948
        },
        {
            "buffer" : 0,
            "byteLength" : 1768,
            "byteOffset" : 1699600
        },
        {
            "buffer" : 0,
            "byteLength" : 720,
            "byteOffset" : 1701368
        },
        {
            "buffer" : 0,
            "byteLength" : 11556,
            "byteOffset" : 1702088
        },
        {
            "buffer" : 0,
            "byteLength" : 11556,
            "byteOffset" : 1713644
        },
        {
            "buffer" : 0,
            "byteLength" : 7704,
            "byteOffset" : 1725200
        },
        {
            "buffer" : 0,
            "byteLength" : 3168,
            "byteOffset" : 1732904
        },
        {
            "buffer" : 0,
            "byteLength" : 9192,
            "byteOffset" : 1736072
        },
        {
            "buffer" : 0,
            "byteLength" : 9192,
            "byteOffset" : 1745264
        },
        {
            "buffer" : 0,
            "byteLength" : 6128,
            "byteOffset" : 1754456
        },
        {
            "buffer" : 0,
            "byteLength" : 2760,
            "byteOffset" : 1760584
        },
        {
            "buffer" : 0,
            "byteLength" : 13968,
            "byteOffset" : 1763344
        },
        {
            "buffer" : 0,
            "byteLength" : 13968,
            "byteOffset" : 1777312
        },
        {
            "buffer" : 0,
            "byteLength" : 9312,
            "byteOffset" : 1791280
        },
        {
            "buffer" : 0,
            "byteLength" : 3888,
            "byteOffset" : 1800592
        },
        {
            "buffer" : 0,
            "byteLength" : 576,
            "byteOffset" : 1804480
        },
        {
            "buffer" : 0,
            "byteLength" : 576,
            "byteOffset" : 1805056
        },
        {
            "buffer" : 0,
            "byteLength" : 384,
            "byteOffset" : 1805632
        },
        {
            "buffer" : 0,
            "byteLength" : 144,
            "byteOffset" : 1806016
        }
    ],
    "samplers" : [
        {
            "magFilter" : 9729,
            "minFilter" : 9987
        }
    ],
    "buffers" : [
        {
            "byteLength" : 1806160,
            "uri" : "data:application/octet-stream;base64,"
        }
    ]
}
